<?xml version="1.0" encoding="ISO-8859-1" standalone="no"?>
<!DOCTYPE svg PUBLIC "-//W3C//DTD SVG 1.1//EN" "http://www.w3.org/Graphics/SVG/1.1/DTD/svg11.dtd">
<svg version="1.1" baseProfile="full" id="body" width="8in" height="8in" viewBox="0 0 1 1" preserveAspectRatio="none" xmlns="http://www.w3.org/2000/svg" xmlns:xlink="http://www.w3.org/1999/xlink" xmlns:ev="http://www.w3.org/2001/xml-events">
<title>SVG drawing</title>
<desc>This was produced by version 4.4 of GNU libplot, a free library for exporting 2-D vector graphics.</desc>
<rect id="background" x="0" y="0" width="1" height="1" stroke="none" fill="white"/>
<g id="content" transform="translate(0,1) scale(1,-1) scale(0.00024414) " xml:space="preserve" stroke="black" stroke-linecap="butt" stroke-linejoin="miter" stroke-miterlimit="10.433" stroke-dasharray="none" stroke-dashoffset="0" stroke-opacity="1" fill="none" fill-rule="evenodd" fill-opacity="1" font-style="normal" font-variant="normal" font-weight="normal" font-stretch="normal" font-size-adjust="none" letter-spacing="normal" word-spacing="normal" text-anchor="start">
<rect x="819.2" y="819.2" width="2457.6" height="2457.6" stroke-width="4.8188" />
<text transform="translate(783.33,662.21) scale(1,-1) scale(6.4512) " font-family="Helvetica,sans-serif" font-size="20px" stroke="none" fill="black" >0</text>
<line x1="819.2" y1="3276.8" x2="819.2" y2="3227.6" stroke-width="4.8188" />
<line x1="819.2" y1="819.2" x2="819.2" y2="868.35" stroke-width="4.8188" />
<text transform="translate(1239,662.21) scale(1,-1) scale(6.4512) " font-family="Helvetica,sans-serif" font-size="20px" stroke="none" fill="black" >10</text>
<line x1="1310.7" y1="3276.8" x2="1310.7" y2="3227.6" stroke-width="4.8188" />
<line x1="1310.7" y1="819.2" x2="1310.7" y2="868.35" stroke-width="4.8188" />
<text transform="translate(1730.5,662.21) scale(1,-1) scale(6.4512) " font-family="Helvetica,sans-serif" font-size="20px" stroke="none" fill="black" >20</text>
<line x1="1802.2" y1="3276.8" x2="1802.2" y2="3227.6" stroke-width="4.8188" />
<line x1="1802.2" y1="819.2" x2="1802.2" y2="868.35" stroke-width="4.8188" />
<text transform="translate(2222,662.21) scale(1,-1) scale(6.4512) " font-family="Helvetica,sans-serif" font-size="20px" stroke="none" fill="black" >30</text>
<line x1="2293.8" y1="3276.8" x2="2293.8" y2="3227.6" stroke-width="4.8188" />
<line x1="2293.8" y1="819.2" x2="2293.8" y2="868.35" stroke-width="4.8188" />
<text transform="translate(2713.5,662.21) scale(1,-1) scale(6.4512) " font-family="Helvetica,sans-serif" font-size="20px" stroke="none" fill="black" >40</text>
<line x1="2785.3" y1="3276.8" x2="2785.3" y2="3227.6" stroke-width="4.8188" />
<line x1="2785.3" y1="819.2" x2="2785.3" y2="868.35" stroke-width="4.8188" />
<text transform="translate(3205.1,662.21) scale(1,-1) scale(6.4512) " font-family="Helvetica,sans-serif" font-size="20px" stroke="none" fill="black" >50</text>
<line x1="3276.8" y1="3276.8" x2="3276.8" y2="3227.6" stroke-width="4.8188" />
<line x1="3276.8" y1="819.2" x2="3276.8" y2="868.35" stroke-width="4.8188" />
<line x1="819.2" y1="3276.8" x2="819.2" y2="3257.1" stroke-width="4.8188" />
<line x1="819.2" y1="819.2" x2="819.2" y2="838.86" stroke-width="4.8188" />
<line x1="917.5" y1="3276.8" x2="917.5" y2="3257.1" stroke-width="4.8188" />
<line x1="917.5" y1="819.2" x2="917.5" y2="838.86" stroke-width="4.8188" />
<line x1="1015.8" y1="3276.8" x2="1015.8" y2="3257.1" stroke-width="4.8188" />
<line x1="1015.8" y1="819.2" x2="1015.8" y2="838.86" stroke-width="4.8188" />
<line x1="1114.1" y1="3276.8" x2="1114.1" y2="3257.1" stroke-width="4.8188" />
<line x1="1114.1" y1="819.2" x2="1114.1" y2="838.86" stroke-width="4.8188" />
<line x1="1212.4" y1="3276.8" x2="1212.4" y2="3257.1" stroke-width="4.8188" />
<line x1="1212.4" y1="819.2" x2="1212.4" y2="838.86" stroke-width="4.8188" />
<line x1="1310.7" y1="3276.8" x2="1310.7" y2="3257.1" stroke-width="4.8188" />
<line x1="1310.7" y1="819.2" x2="1310.7" y2="838.86" stroke-width="4.8188" />
<line x1="1409" y1="3276.8" x2="1409" y2="3257.1" stroke-width="4.8188" />
<line x1="1409" y1="819.2" x2="1409" y2="838.86" stroke-width="4.8188" />
<line x1="1507.3" y1="3276.8" x2="1507.3" y2="3257.1" stroke-width="4.8188" />
<line x1="1507.3" y1="819.2" x2="1507.3" y2="838.86" stroke-width="4.8188" />
<line x1="1605.6" y1="3276.8" x2="1605.6" y2="3257.1" stroke-width="4.8188" />
<line x1="1605.6" y1="819.2" x2="1605.6" y2="838.86" stroke-width="4.8188" />
<line x1="1703.9" y1="3276.8" x2="1703.9" y2="3257.1" stroke-width="4.8188" />
<line x1="1703.9" y1="819.2" x2="1703.9" y2="838.86" stroke-width="4.8188" />
<line x1="1802.2" y1="3276.8" x2="1802.2" y2="3257.1" stroke-width="4.8188" />
<line x1="1802.2" y1="819.2" x2="1802.2" y2="838.86" stroke-width="4.8188" />
<line x1="1900.5" y1="3276.8" x2="1900.5" y2="3257.1" stroke-width="4.8188" />
<line x1="1900.5" y1="819.2" x2="1900.5" y2="838.86" stroke-width="4.8188" />
<line x1="1998.8" y1="3276.8" x2="1998.8" y2="3257.1" stroke-width="4.8188" />
<line x1="1998.8" y1="819.2" x2="1998.8" y2="838.86" stroke-width="4.8188" />
<line x1="2097.2" y1="3276.8" x2="2097.2" y2="3257.1" stroke-width="4.8188" />
<line x1="2097.2" y1="819.2" x2="2097.2" y2="838.86" stroke-width="4.8188" />
<line x1="2195.5" y1="3276.8" x2="2195.5" y2="3257.1" stroke-width="4.8188" />
<line x1="2195.5" y1="819.2" x2="2195.5" y2="838.86" stroke-width="4.8188" />
<line x1="2293.8" y1="3276.8" x2="2293.8" y2="3257.1" stroke-width="4.8188" />
<line x1="2293.8" y1="819.2" x2="2293.8" y2="838.86" stroke-width="4.8188" />
<line x1="2392.1" y1="3276.8" x2="2392.1" y2="3257.1" stroke-width="4.8188" />
<line x1="2392.1" y1="819.2" x2="2392.1" y2="838.86" stroke-width="4.8188" />
<line x1="2490.4" y1="3276.8" x2="2490.4" y2="3257.1" stroke-width="4.8188" />
<line x1="2490.4" y1="819.2" x2="2490.4" y2="838.86" stroke-width="4.8188" />
<line x1="2588.7" y1="3276.8" x2="2588.7" y2="3257.1" stroke-width="4.8188" />
<line x1="2588.7" y1="819.2" x2="2588.7" y2="838.86" stroke-width="4.8188" />
<line x1="2687" y1="3276.8" x2="2687" y2="3257.1" stroke-width="4.8188" />
<line x1="2687" y1="819.2" x2="2687" y2="838.86" stroke-width="4.8188" />
<line x1="2785.3" y1="3276.8" x2="2785.3" y2="3257.1" stroke-width="4.8188" />
<line x1="2785.3" y1="819.2" x2="2785.3" y2="838.86" stroke-width="4.8188" />
<line x1="2883.6" y1="3276.8" x2="2883.6" y2="3257.1" stroke-width="4.8188" />
<line x1="2883.6" y1="819.2" x2="2883.6" y2="838.86" stroke-width="4.8188" />
<line x1="2981.9" y1="3276.8" x2="2981.9" y2="3257.1" stroke-width="4.8188" />
<line x1="2981.9" y1="819.2" x2="2981.9" y2="838.86" stroke-width="4.8188" />
<line x1="3080.2" y1="3276.8" x2="3080.2" y2="3257.1" stroke-width="4.8188" />
<line x1="3080.2" y1="819.2" x2="3080.2" y2="838.86" stroke-width="4.8188" />
<line x1="3178.5" y1="3276.8" x2="3178.5" y2="3257.1" stroke-width="4.8188" />
<line x1="3178.5" y1="819.2" x2="3178.5" y2="838.86" stroke-width="4.8188" />
<line x1="3276.8" y1="3276.8" x2="3276.8" y2="3257.1" stroke-width="4.8188" />
<line x1="3276.8" y1="819.2" x2="3276.8" y2="838.86" stroke-width="4.8188" />
<text transform="translate(710.6,773.65) scale(1,-1) scale(6.4512) " font-family="Helvetica,sans-serif" font-size="20px" stroke="none" fill="black" >0</text>
<line x1="3276.8" y1="819.2" x2="3227.6" y2="819.2" stroke-width="4.8188" />
<line x1="819.2" y1="819.2" x2="868.35" y2="819.2" stroke-width="4.8188" />
<text transform="translate(427.23,1388.1) scale(1,-1) scale(6.4512) " font-family="Helvetica,sans-serif" font-size="20px" stroke="none" fill="black" >5</text>
<text transform="translate(520.47,1388.1) scale(1,-1) scale(6.4512) " font-family="Helvetica,sans-serif" font-size="20px" stroke="none" fill="black" >×10</text>
<text transform="translate(739.29,1436.4) scale(1,-1) scale(3.8707) " font-family="Helvetica,sans-serif" font-size="20px" stroke="none" fill="black" >3</text>
<line x1="3276.8" y1="1433.6" x2="3227.6" y2="1433.6" stroke-width="4.8188" />
<line x1="819.2" y1="1433.6" x2="868.35" y2="1433.6" stroke-width="4.8188" />
<text transform="translate(319.62,2002.5) scale(1,-1) scale(6.4512) " font-family="Helvetica,sans-serif" font-size="20px" stroke="none" fill="black" >1.0</text>
<text transform="translate(520.47,2002.5) scale(1,-1) scale(6.4512) " font-family="Helvetica,sans-serif" font-size="20px" stroke="none" fill="black" >×10</text>
<text transform="translate(739.29,2050.8) scale(1,-1) scale(3.8707) " font-family="Helvetica,sans-serif" font-size="20px" stroke="none" fill="black" >4</text>
<line x1="3276.8" y1="2048" x2="3227.6" y2="2048" stroke-width="4.8188" />
<line x1="819.2" y1="2048" x2="868.35" y2="2048" stroke-width="4.8188" />
<text transform="translate(319.62,2616.9) scale(1,-1) scale(6.4512) " font-family="Helvetica,sans-serif" font-size="20px" stroke="none" fill="black" >1.5</text>
<text transform="translate(520.47,2616.9) scale(1,-1) scale(6.4512) " font-family="Helvetica,sans-serif" font-size="20px" stroke="none" fill="black" >×10</text>
<text transform="translate(739.29,2665.2) scale(1,-1) scale(3.8707) " font-family="Helvetica,sans-serif" font-size="20px" stroke="none" fill="black" >4</text>
<line x1="3276.8" y1="2662.4" x2="3227.6" y2="2662.4" stroke-width="4.8188" />
<line x1="819.2" y1="2662.4" x2="868.35" y2="2662.4" stroke-width="4.8188" />
<text transform="translate(319.62,3231.3) scale(1,-1) scale(6.4512) " font-family="Helvetica,sans-serif" font-size="20px" stroke="none" fill="black" >2.0</text>
<text transform="translate(520.47,3231.3) scale(1,-1) scale(6.4512) " font-family="Helvetica,sans-serif" font-size="20px" stroke="none" fill="black" >×10</text>
<text transform="translate(739.29,3279.6) scale(1,-1) scale(3.8707) " font-family="Helvetica,sans-serif" font-size="20px" stroke="none" fill="black" >4</text>
<line x1="3276.8" y1="3276.8" x2="3227.6" y2="3276.8" stroke-width="4.8188" />
<line x1="819.2" y1="3276.8" x2="868.35" y2="3276.8" stroke-width="4.8188" />
<line x1="3276.8" y1="819.2" x2="3257.1" y2="819.2" stroke-width="4.8188" />
<line x1="819.2" y1="819.2" x2="838.86" y2="819.2" stroke-width="4.8188" />
<line x1="3276.8" y1="942.08" x2="3257.1" y2="942.08" stroke-width="4.8188" />
<line x1="819.2" y1="942.08" x2="838.86" y2="942.08" stroke-width="4.8188" />
<line x1="3276.8" y1="1065" x2="3257.1" y2="1065" stroke-width="4.8188" />
<line x1="819.2" y1="1065" x2="838.86" y2="1065" stroke-width="4.8188" />
<line x1="3276.8" y1="1187.8" x2="3257.1" y2="1187.8" stroke-width="4.8188" />
<line x1="819.2" y1="1187.8" x2="838.86" y2="1187.8" stroke-width="4.8188" />
<line x1="3276.8" y1="1310.7" x2="3257.1" y2="1310.7" stroke-width="4.8188" />
<line x1="819.2" y1="1310.7" x2="838.86" y2="1310.7" stroke-width="4.8188" />
<line x1="3276.8" y1="1433.6" x2="3257.1" y2="1433.6" stroke-width="4.8188" />
<line x1="819.2" y1="1433.6" x2="838.86" y2="1433.6" stroke-width="4.8188" />
<line x1="3276.8" y1="1556.5" x2="3257.1" y2="1556.5" stroke-width="4.8188" />
<line x1="819.2" y1="1556.5" x2="838.86" y2="1556.5" stroke-width="4.8188" />
<line x1="3276.8" y1="1679.4" x2="3257.1" y2="1679.4" stroke-width="4.8188" />
<line x1="819.2" y1="1679.4" x2="838.86" y2="1679.4" stroke-width="4.8188" />
<line x1="3276.8" y1="1802.2" x2="3257.1" y2="1802.2" stroke-width="4.8188" />
<line x1="819.2" y1="1802.2" x2="838.86" y2="1802.2" stroke-width="4.8188" />
<line x1="3276.8" y1="1925.1" x2="3257.1" y2="1925.1" stroke-width="4.8188" />
<line x1="819.2" y1="1925.1" x2="838.86" y2="1925.1" stroke-width="4.8188" />
<line x1="3276.8" y1="2048" x2="3257.1" y2="2048" stroke-width="4.8188" />
<line x1="819.2" y1="2048" x2="838.86" y2="2048" stroke-width="4.8188" />
<line x1="3276.8" y1="2170.9" x2="3257.1" y2="2170.9" stroke-width="4.8188" />
<line x1="819.2" y1="2170.9" x2="838.86" y2="2170.9" stroke-width="4.8188" />
<line x1="3276.8" y1="2293.8" x2="3257.1" y2="2293.8" stroke-width="4.8188" />
<line x1="819.2" y1="2293.8" x2="838.86" y2="2293.8" stroke-width="4.8188" />
<line x1="3276.8" y1="2416.6" x2="3257.1" y2="2416.6" stroke-width="4.8188" />
<line x1="819.2" y1="2416.6" x2="838.86" y2="2416.6" stroke-width="4.8188" />
<line x1="3276.8" y1="2539.5" x2="3257.1" y2="2539.5" stroke-width="4.8188" />
<line x1="819.2" y1="2539.5" x2="838.86" y2="2539.5" stroke-width="4.8188" />
<line x1="3276.8" y1="2662.4" x2="3257.1" y2="2662.4" stroke-width="4.8188" />
<line x1="819.2" y1="2662.4" x2="838.86" y2="2662.4" stroke-width="4.8188" />
<line x1="3276.8" y1="2785.3" x2="3257.1" y2="2785.3" stroke-width="4.8188" />
<line x1="819.2" y1="2785.3" x2="838.86" y2="2785.3" stroke-width="4.8188" />
<line x1="3276.8" y1="2908.2" x2="3257.1" y2="2908.2" stroke-width="4.8188" />
<line x1="819.2" y1="2908.2" x2="838.86" y2="2908.2" stroke-width="4.8188" />
<line x1="3276.8" y1="3031" x2="3257.1" y2="3031" stroke-width="4.8188" />
<line x1="819.2" y1="3031" x2="838.86" y2="3031" stroke-width="4.8188" />
<line x1="3276.8" y1="3153.9" x2="3257.1" y2="3153.9" stroke-width="4.8188" />
<line x1="819.2" y1="3153.9" x2="838.86" y2="3153.9" stroke-width="4.8188" />
<line x1="3276.8" y1="3276.8" x2="3257.1" y2="3276.8" stroke-width="4.8188" />
<line x1="819.2" y1="3276.8" x2="838.86" y2="3276.8" stroke-width="4.8188" />
<polyline points="819.2,846.23 868.35,1304.8 917.5,1678.6 966.66,1976 1015.8,2204.9 1065,2373 1114.1,2487.4 1163.3,2555.2 1212.4,2582.8 1261.6,2576.5 1310.7,2542 1359.9,2484.8 1409,2410.3 1458.2,2322.9 1507.3,2227.2 1556.5,2127.3 1605.6,2026.9 1654.8,1929.2 1703.9,1837.5 1753.1,1754.2 1802.2,1681.8 1851.4,1622.1 1900.5,1576.8 1949.7,1547 1998.8,1533.7 2048,1537.4 2097.2,1558.3 2146.3,1596.2 2195.5,1650.5 2244.6,1720.4 2293.8,1804.7 2342.9,1901.6 2392.1,2009.5 2441.2,2125.8 2490.4,2248 2539.5,2373 2588.7,2497.5 2637.8,2617.8 2687,2729.7 2736.1,2828.9 2785.3,2910.6 2834.4,2969.7 2883.6,3000.6 2932.7,2997.6 2981.9,2954.4 3031,2864.5 3080.2,2721 3129.3,2516.7 3178.5,2243.9 " stroke-width="4.8188" />
</g>
</svg>
